<svg width="30" height="40" viewBox="0 0 30 40" fill="none" xmlns="http://www.w3.org/2000/svg">
<g clip-path="url(#clip0_215_8216)">
<path d="M0 4C0 1.79086 1.79086 0 4 0H17L30 13V36C30 38.2091 28.2091 40 26 40H4C1.79086 40 0 38.2091 0 36V4Z" fill="#3873FF"/>
<path d="M20 13H30L17 0V10C17 11.6569 18.3431 13 20 13Z" fill="white" fill-opacity="0.5"/>
</g>
<path d="M9.35146 25.7273H10.8713V30.7983C10.8713 31.267 10.766 31.6742 10.5553 32.0199C10.347 32.3655 10.0569 32.6319 9.68526 32.8189C9.31358 33.0059 8.88152 33.0994 8.3891 33.0994C7.95112 33.0994 7.5534 33.0225 7.19592 32.8686C6.8408 32.7124 6.55908 32.4756 6.35075 32.1584C6.14241 31.8388 6.03943 31.4375 6.0418 30.9545H7.57234C7.57707 31.1463 7.61613 31.3108 7.68952 31.4482C7.76528 31.5831 7.86826 31.6873 7.99847 31.7607C8.13105 31.8317 8.2873 31.8672 8.46722 31.8672C8.65662 31.8672 8.81642 31.8269 8.94663 31.7464C9.0792 31.6636 9.17982 31.5429 9.24847 31.3842C9.31713 31.2256 9.35146 31.0303 9.35146 30.7983V25.7273ZM11.9426 33V25.7273H14.812C15.3636 25.7273 15.8335 25.8326 16.2218 26.0433C16.61 26.2517 16.906 26.5417 17.1096 26.9134C17.3155 27.2827 17.4185 27.7088 17.4185 28.1918C17.4185 28.6747 17.3143 29.1009 17.106 29.4702C16.8977 29.8395 16.5958 30.1271 16.2005 30.3331C15.8075 30.5391 15.3316 30.642 14.7729 30.642H12.9441V29.4098H14.5243C14.8203 29.4098 15.0641 29.3589 15.2559 29.2571C15.45 29.1529 15.5944 29.0097 15.6891 28.8274C15.7862 28.6428 15.8347 28.4309 15.8347 28.1918C15.8347 27.9503 15.7862 27.7396 15.6891 27.5597C15.5944 27.3774 15.45 27.2365 15.2559 27.1371C15.0617 27.0353 14.8155 26.9844 14.5172 26.9844H13.4803V33H11.9426ZM23.0397 28.0781C22.99 27.9053 22.9201 27.7526 22.8302 27.62C22.7402 27.4851 22.6301 27.3714 22.4999 27.2791C22.3721 27.1844 22.2253 27.1122 22.0596 27.0625C21.8962 27.0128 21.7151 26.9879 21.5163 26.9879C21.1446 26.9879 20.8179 27.0803 20.5362 27.2649C20.2568 27.4496 20.039 27.7183 19.8827 28.071C19.7265 28.4214 19.6484 28.8499 19.6484 29.3565C19.6484 29.8632 19.7253 30.294 19.8792 30.6491C20.0331 31.0043 20.2509 31.2753 20.5326 31.4624C20.8143 31.647 21.1469 31.7393 21.5305 31.7393C21.8785 31.7393 22.1756 31.6778 22.4218 31.5547C22.6704 31.4292 22.8598 31.2528 22.99 31.0256C23.1226 30.7983 23.1888 30.5296 23.1888 30.2195L23.5013 30.2656H21.6263V29.108H24.6697V30.0241C24.6697 30.6634 24.5347 31.2126 24.2648 31.6719C23.995 32.1288 23.6233 32.4815 23.1498 32.7301C22.6763 32.9763 22.1342 33.0994 21.5234 33.0994C20.8415 33.0994 20.2426 32.9491 19.7265 32.6484C19.2104 32.3454 18.8079 31.9157 18.5191 31.3594C18.2326 30.8007 18.0894 30.1378 18.0894 29.3707C18.0894 28.7812 18.1746 28.2557 18.3451 27.794C18.5179 27.33 18.7594 26.937 19.0695 26.6151C19.3797 26.2931 19.7407 26.0481 20.1526 25.88C20.5646 25.7119 21.0108 25.6278 21.4914 25.6278C21.9033 25.6278 22.2869 25.6882 22.642 25.8089C22.9971 25.9273 23.312 26.0954 23.5866 26.3132C23.8636 26.531 24.0897 26.7902 24.2648 27.0909C24.44 27.3892 24.5525 27.7183 24.6022 28.0781H23.0397Z" fill="white"/>
<defs>
<clipPath id="clip0_215_8216">
<rect width="30" height="40" fill="white"/>
</clipPath>
</defs>
</svg>
