<svg width="30" height="40" viewBox="0 0 30 40" fill="none" xmlns="http://www.w3.org/2000/svg">
<g clip-path="url(#clip0_215_8212)">
<path d="M0 4C0 1.79086 1.79086 0 4 0H17L30 13V36C30 38.2091 28.2091 40 26 40H4C1.79086 40 0 38.2091 0 36V4Z" fill="#6E45F0"/>
<path d="M20 13H30L17 0V10C17 11.6569 18.3431 13 20 13Z" fill="white" fill-opacity="0.5"/>
</g>
<path d="M5.13093 25.7273H7.02724L9.03008 30.6136H9.11531L11.1181 25.7273H13.0145V33H11.523V28.2663H11.4626L9.5805 32.9645H8.56488L6.68278 28.2486H6.62241V33H5.13093V25.7273ZM14.0813 33V25.7273H16.9506C17.5022 25.7273 17.9722 25.8326 18.3604 26.0433C18.7487 26.2517 19.0446 26.5417 19.2482 26.9134C19.4542 27.2827 19.5572 27.7088 19.5572 28.1918C19.5572 28.6747 19.453 29.1009 19.2447 29.4702C19.0363 29.8395 18.7345 30.1271 18.3391 30.3331C17.9461 30.5391 17.4703 30.642 16.9116 30.642H15.0827V29.4098H16.663C16.9589 29.4098 17.2028 29.3589 17.3945 29.2571C17.5887 29.1529 17.7331 29.0097 17.8278 28.8274C17.9248 28.6428 17.9734 28.4309 17.9734 28.1918C17.9734 27.9503 17.9248 27.7396 17.8278 27.5597C17.7331 27.3774 17.5887 27.2365 17.3945 27.1371C17.2004 27.0353 16.9542 26.9844 16.6559 26.9844H15.619V33H14.0813ZM20.2032 31.7216V30.5107L23.2395 25.7273H24.2835V27.4034H23.6656L21.7515 30.4325V30.4893H26.0662V31.7216H20.2032ZM23.694 33V31.3523L23.7224 30.8161V25.7273H25.1642V33H23.694Z" fill="white"/>
<defs>
<clipPath id="clip0_215_8212">
<rect width="30" height="40" fill="white"/>
</clipPath>
</defs>
</svg>
