<svg width="30" height="40" viewBox="0 0 30 40" fill="none" xmlns="http://www.w3.org/2000/svg">
<g clip-path="url(#clip0_215_8215)">
<path d="M0 4C0 1.79086 1.79086 0 4 0H17L30 13V36C30 38.2091 28.2091 40 26 40H4C1.79086 40 0 38.2091 0 36V4Z" fill="#6E45F0"/>
<path d="M20 13H30L17 0V10C17 11.6569 18.3431 13 20 13Z" fill="white" fill-opacity="0.5"/>
</g>
<path d="M9.15792 33H7.51019L10.0208 25.7273H12.0024L14.5095 33H12.8618L11.04 27.3892H10.9832L9.15792 33ZM9.05494 30.1413H12.947V31.3416H9.05494V30.1413ZM15.5906 25.7273L17.3484 31.2528H17.4158L19.1772 25.7273H20.8817L18.3746 33H16.3931L13.8825 25.7273H15.5906ZM23.0947 25.7273V33H21.5571V25.7273H23.0947Z" fill="white"/>
<defs>
<clipPath id="clip0_215_8215">
<rect width="30" height="40" fill="white"/>
</clipPath>
</defs>
</svg>
