<svg width="30" height="40" viewBox="0 0 30 40" fill="none" xmlns="http://www.w3.org/2000/svg">
<g clip-path="url(#clip0_215_8210)">
<path d="M0 4C0 1.79086 1.79086 0 4 0H17L30 13V36C30 38.2091 28.2091 40 26 40H4C1.79086 40 0 38.2091 0 36V4Z" fill="#FF1607"/>
<path d="M20 13H30L17 0V10C17 11.6569 18.3431 13 20 13Z" fill="white" fill-opacity="0.5"/>
</g>
<path d="M6.5323 33V25.7273H9.40162C9.95323 25.7273 10.4232 25.8326 10.8114 26.0433C11.1997 26.2517 11.4956 26.5417 11.6992 26.9134C11.9052 27.2827 12.0082 27.7088 12.0082 28.1918C12.0082 28.6747 11.904 29.1009 11.6957 29.4702C11.4873 29.8395 11.1855 30.1271 10.7901 30.3331C10.3971 30.5391 9.92127 30.642 9.36255 30.642H7.53372V29.4098H9.11397C9.4099 29.4098 9.65375 29.3589 9.84551 29.2571C10.0396 29.1529 10.184 29.0097 10.2787 28.8274C10.3758 28.6428 10.4243 28.4309 10.4243 28.1918C10.4243 27.9503 10.3758 27.7396 10.2787 27.5597C10.184 27.3774 10.0396 27.2365 9.84551 27.1371C9.65138 27.0353 9.40517 26.9844 9.10687 26.9844H8.06994V33H6.5323ZM15.385 33H12.8069V25.7273H15.4063C16.1379 25.7273 16.7676 25.8729 17.2955 26.1641C17.8235 26.4529 18.2295 26.8684 18.5136 27.4105C18.8 27.9527 18.9433 28.6013 18.9433 29.3565C18.9433 30.1141 18.8 30.7652 18.5136 31.3097C18.2295 31.8542 17.8211 32.272 17.2884 32.5632C16.7581 32.8544 16.1237 33 15.385 33ZM14.3445 31.6825H15.3211C15.7757 31.6825 16.158 31.602 16.4681 31.4411C16.7806 31.2777 17.015 31.0256 17.1713 30.6847C17.3299 30.3414 17.4092 29.8987 17.4092 29.3565C17.4092 28.8191 17.3299 28.38 17.1713 28.0391C17.015 27.6982 16.7818 27.4472 16.4717 27.2862C16.1615 27.1252 15.7792 27.0447 15.3247 27.0447H14.3445V31.6825ZM19.8823 33V25.7273H24.6976V26.995H21.4199V28.728H24.378V29.9957H21.4199V33H19.8823Z" fill="white"/>
<defs>
<clipPath id="clip0_215_8210">
<rect width="30" height="40" fill="white"/>
</clipPath>
</defs>
</svg>
