<svg width="30" height="40" viewBox="0 0 30 40" fill="none" xmlns="http://www.w3.org/2000/svg">
<g clip-path="url(#clip0_215_8213)">
<path d="M0 4C0 1.79086 1.79086 0 4 0H17L30 13V36C30 38.2091 28.2091 40 26 40H4C1.79086 40 0 38.2091 0 36V4Z" fill="#3873FF"/>
<path d="M20 13H30L17 0V10C17 11.6569 18.3431 13 20 13Z" fill="white" fill-opacity="0.5"/>
</g>
<path d="M5.61433 33V25.7273H8.48365C9.03526 25.7273 9.50519 25.8326 9.89345 26.0433C10.2817 26.2517 10.5776 26.5417 10.7812 26.9134C10.9872 27.2827 11.0902 27.7088 11.0902 28.1918C11.0902 28.6747 10.986 29.1009 10.7777 29.4702C10.5693 29.8395 10.2675 30.1271 9.87214 30.3331C9.47915 30.5391 9.0033 30.642 8.44458 30.642H6.61575V29.4098H8.196C8.49193 29.4098 8.73578 29.3589 8.92754 29.2571C9.12167 29.1529 9.26608 29.0097 9.36078 28.8274C9.45784 28.6428 9.50637 28.4309 9.50637 28.1918C9.50637 27.9503 9.45784 27.7396 9.36078 27.5597C9.26608 27.3774 9.12167 27.2365 8.92754 27.1371C8.73341 27.0353 8.4872 26.9844 8.1889 26.9844H7.15197V33H5.61433ZM17.972 25.7273V33H16.6439L13.4798 28.4226H13.4266V33H11.8889V25.7273H13.2384L16.3776 30.3011H16.4415V25.7273H17.972ZM23.8649 28.0781C23.8152 27.9053 23.7453 27.7526 23.6554 27.62C23.5654 27.4851 23.4553 27.3714 23.3251 27.2791C23.1973 27.1844 23.0505 27.1122 22.8848 27.0625C22.7214 27.0128 22.5403 26.9879 22.3415 26.9879C21.9698 26.9879 21.6431 27.0803 21.3613 27.2649C21.082 27.4496 20.8642 27.7183 20.7079 28.071C20.5517 28.4214 20.4736 28.8499 20.4736 29.3565C20.4736 29.8632 20.5505 30.294 20.7044 30.6491C20.8583 31.0043 21.0761 31.2753 21.3578 31.4624C21.6395 31.647 21.9721 31.7393 22.3557 31.7393C22.7037 31.7393 23.0008 31.6778 23.247 31.5547C23.4956 31.4292 23.685 31.2528 23.8152 31.0256C23.9478 30.7983 24.014 30.5296 24.014 30.2195L24.3265 30.2656H22.4515V29.108H25.4949V30.0241C25.4949 30.6634 25.3599 31.2126 25.09 31.6719C24.8202 32.1288 24.4485 32.4815 23.975 32.7301C23.5015 32.9763 22.9594 33.0994 22.3486 33.0994C21.6667 33.0994 21.0678 32.9491 20.5517 32.6484C20.0356 32.3454 19.6331 31.9157 19.3443 31.3594C19.0578 30.8007 18.9146 30.1378 18.9146 29.3707C18.9146 28.7812 18.9998 28.2557 19.1703 27.794C19.3431 27.33 19.5846 26.937 19.8947 26.6151C20.2049 26.2931 20.5659 26.0481 20.9778 25.88C21.3898 25.7119 21.836 25.6278 22.3166 25.6278C22.7285 25.6278 23.1121 25.6882 23.4672 25.8089C23.8223 25.9273 24.1372 26.0954 24.4118 26.3132C24.6888 26.531 24.9149 26.7902 25.09 27.0909C25.2652 27.3892 25.3777 27.7183 25.4274 28.0781H23.8649Z" fill="white"/>
<defs>
<clipPath id="clip0_215_8213">
<rect width="30" height="40" fill="white"/>
</clipPath>
</defs>
</svg>
