<svg width="30" height="40" viewBox="0 0 30 40" fill="none" xmlns="http://www.w3.org/2000/svg">
<g clip-path="url(#clip0_215_8211)">
<path d="M0 4C0 1.79086 1.79086 0 4 0H17L30 13V36C30 38.2091 28.2091 40 26 40H4C1.79086 40 0 38.2091 0 36V4Z" fill="#6E45F0"/>
<path d="M20 13H30L17 0V10C17 11.6569 18.3431 13 20 13Z" fill="white" fill-opacity="0.5"/>
</g>
<path d="M3.81062 25.7273H5.70692L7.70977 30.6136H7.79499L9.79783 25.7273H11.6941V33H10.2027V28.2663H10.1423L8.26019 32.9645H7.24457L5.36246 28.2486H5.3021V33H3.81062V25.7273ZM19.4442 29.3636C19.4442 30.1567 19.2939 30.8314 18.9933 31.3878C18.695 31.9441 18.2878 32.3691 17.7717 32.6626C17.2579 32.9538 16.6803 33.0994 16.0387 33.0994C15.3924 33.0994 14.8124 32.9527 14.2987 32.6591C13.7849 32.3655 13.3789 31.9406 13.0806 31.3842C12.7823 30.8279 12.6332 30.1544 12.6332 29.3636C12.6332 28.5705 12.7823 27.8958 13.0806 27.3395C13.3789 26.7831 13.7849 26.3594 14.2987 26.0682C14.8124 25.7746 15.3924 25.6278 16.0387 25.6278C16.6803 25.6278 17.2579 25.7746 17.7717 26.0682C18.2878 26.3594 18.695 26.7831 18.9933 27.3395C19.2939 27.8958 19.4442 28.5705 19.4442 29.3636ZM17.8853 29.3636C17.8853 28.8499 17.8084 28.4167 17.6545 28.0639C17.503 27.7112 17.2887 27.4437 17.0117 27.2614C16.7347 27.0791 16.4104 26.9879 16.0387 26.9879C15.667 26.9879 15.3427 27.0791 15.0657 27.2614C14.7887 27.4437 14.5733 27.7112 14.4194 28.0639C14.2679 28.4167 14.1921 28.8499 14.1921 29.3636C14.1921 29.8774 14.2679 30.3106 14.4194 30.6634C14.5733 31.0161 14.7887 31.2836 15.0657 31.4659C15.3427 31.6482 15.667 31.7393 16.0387 31.7393C16.4104 31.7393 16.7347 31.6482 17.0117 31.4659C17.2887 31.2836 17.503 31.0161 17.6545 30.6634C17.8084 30.3106 17.8853 29.8774 17.8853 29.3636ZM21.287 25.7273L23.0449 31.2528H23.1123L24.8737 25.7273H26.5782L24.0711 33H22.0896L19.5789 25.7273H21.287Z" fill="white"/>
<defs>
<clipPath id="clip0_215_8211">
<rect width="30" height="40" fill="white"/>
</clipPath>
</defs>
</svg>
