<svg width="30" height="40" viewBox="0 0 30 40" fill="none" xmlns="http://www.w3.org/2000/svg">
<g clip-path="url(#clip0_215_8214)">
<path d="M0 4C0 1.79086 1.79086 0 4 0H17L30 13V36C30 38.2091 28.2091 40 26 40H4C1.79086 40 0 38.2091 0 36V4Z" fill="#3873FF"/>
<path d="M20 13H30L17 0V10C17 11.6569 18.3431 13 20 13Z" fill="white" fill-opacity="0.5"/>
</g>
<path d="M6.38993 25.7273H7.90982V30.7983C7.90982 31.267 7.80447 31.6742 7.59377 32.0199C7.38543 32.3655 7.09543 32.6319 6.72374 32.8189C6.35205 33.0059 5.92 33.0994 5.42757 33.0994C4.9896 33.0994 4.59187 33.0225 4.23439 32.8686C3.87928 32.7124 3.59756 32.4756 3.38922 32.1584C3.18089 31.8388 3.07791 31.4375 3.08027 30.9545H4.61081C4.61555 31.1463 4.65461 31.3108 4.728 31.4482C4.80376 31.5831 4.90674 31.6873 5.03695 31.7607C5.16953 31.8317 5.32578 31.8672 5.5057 31.8672C5.69509 31.8672 5.85489 31.8269 5.9851 31.7464C6.11768 31.6636 6.21829 31.5429 6.28695 31.3842C6.35561 31.2256 6.38993 31.0303 6.38993 30.7983V25.7273ZM8.98113 33V25.7273H11.8504C12.4021 25.7273 12.872 25.8326 13.2602 26.0433C13.6485 26.2517 13.9444 26.5417 14.148 26.9134C14.354 27.2827 14.457 27.7088 14.457 28.1918C14.457 28.6747 14.3528 29.1009 14.1445 29.4702C13.9361 29.8395 13.6343 30.1271 13.2389 30.3331C12.8459 30.5391 12.3701 30.642 11.8114 30.642H9.98255V29.4098H11.5628C11.8587 29.4098 12.1026 29.3589 12.2943 29.2571C12.4885 29.1529 12.6329 29.0097 12.7276 28.8274C12.8246 28.6428 12.8732 28.4309 12.8732 28.1918C12.8732 27.9503 12.8246 27.7396 12.7276 27.5597C12.6329 27.3774 12.4885 27.2365 12.2943 27.1371C12.1002 27.0353 11.854 26.9844 11.5557 26.9844H10.5188V33H8.98113ZM15.2557 33V25.7273H20.1563V26.995H16.7934V28.728H19.9042V29.9957H16.7934V31.7322H20.1705V33H15.2557ZM26.0012 28.0781C25.9515 27.9053 25.8817 27.7526 25.7917 27.62C25.7017 27.4851 25.5917 27.3714 25.4615 27.2791C25.3336 27.1844 25.1868 27.1122 25.0211 27.0625C24.8578 27.0128 24.6767 26.9879 24.4778 26.9879C24.1061 26.9879 23.7794 27.0803 23.4977 27.2649C23.2183 27.4496 23.0005 27.7183 22.8443 28.071C22.688 28.4214 22.6099 28.8499 22.6099 29.3565C22.6099 29.8632 22.6868 30.294 22.8407 30.6491C22.9946 31.0043 23.2124 31.2753 23.4941 31.4624C23.7758 31.647 24.1085 31.7393 24.492 31.7393C24.84 31.7393 25.1371 31.6778 25.3833 31.5547C25.6319 31.4292 25.8213 31.2528 25.9515 31.0256C26.0841 30.7983 26.1504 30.5296 26.1504 30.2195L26.4629 30.2656H24.5879V29.108H27.6312V30.0241C27.6312 30.6634 27.4963 31.2126 27.2264 31.6719C26.9565 32.1288 26.5848 32.4815 26.1113 32.7301C25.6378 32.9763 25.0957 33.0994 24.4849 33.0994C23.8031 33.0994 23.2041 32.9491 22.688 32.6484C22.1719 32.3454 21.7695 31.9157 21.4806 31.3594C21.1942 30.8007 21.0509 30.1378 21.0509 29.3707C21.0509 28.7812 21.1362 28.2557 21.3066 27.794C21.4794 27.33 21.7209 26.937 22.0311 26.6151C22.3412 26.2931 22.7022 26.0481 23.1142 25.88C23.5261 25.7119 23.9723 25.6278 24.4529 25.6278C24.8649 25.6278 25.2484 25.6882 25.6035 25.8089C25.9586 25.9273 26.2735 26.0954 26.5481 26.3132C26.8251 26.531 27.0512 26.7902 27.2264 27.0909C27.4016 27.3892 27.514 27.7183 27.5637 28.0781H26.0012Z" fill="white"/>
<defs>
<clipPath id="clip0_215_8214">
<rect width="30" height="40" fill="white"/>
</clipPath>
</defs>
</svg>
